<mxfile host="app.diagrams.net" modified="2024-07-03T12:37:31.939Z" agent="Mozilla/5.0 (Windows NT 10.0; Win64; x64) AppleWebKit/537.36 (KHTML, like Gecko) Chrome/126.0.0.0 Safari/537.36" etag="t8Pilzof3UhN4u1mJ6x4" version="24.5.2" type="device">
  <diagram name="Página-1" id="7HBTv2NqA2cAA83hMP64">
    <mxGraphModel dx="1235" dy="693" grid="1" gridSize="10" guides="1" tooltips="1" connect="1" arrows="1" fold="1" page="1" pageScale="1" pageWidth="827" pageHeight="1169" math="0" shadow="0">
      <root>
        <mxCell id="0" />
        <mxCell id="1" parent="0" />
        <mxCell id="dKVqYzNJsK0FXJvsrlv0-1" value="Pessoa" style="swimlane;fontStyle=1;align=center;verticalAlign=top;childLayout=stackLayout;horizontal=1;startSize=26;horizontalStack=0;resizeParent=1;resizeParentMax=0;resizeLast=0;collapsible=1;marginBottom=0;whiteSpace=wrap;html=1;" vertex="1" parent="1">
          <mxGeometry x="320" y="40" width="160" height="280" as="geometry" />
        </mxCell>
        <mxCell id="dKVqYzNJsK0FXJvsrlv0-2" value="&lt;div&gt;+nome = &quot;0&quot;&lt;/div&gt;&lt;div&gt;-idade = 10&lt;/div&gt;&lt;div&gt;+cpf = 2165165165&lt;/div&gt;&lt;div&gt;+etnia = &quot;&quot;&lt;/div&gt;&lt;div&gt;+estado_civil = &quot;&quot;&lt;/div&gt;" style="text;strokeColor=none;fillColor=none;align=left;verticalAlign=top;spacingLeft=4;spacingRight=4;overflow=hidden;rotatable=0;points=[[0,0.5],[1,0.5]];portConstraint=eastwest;whiteSpace=wrap;html=1;" vertex="1" parent="dKVqYzNJsK0FXJvsrlv0-1">
          <mxGeometry y="26" width="160" height="94" as="geometry" />
        </mxCell>
        <mxCell id="dKVqYzNJsK0FXJvsrlv0-3" value="" style="line;strokeWidth=1;fillColor=none;align=left;verticalAlign=middle;spacingTop=-1;spacingLeft=3;spacingRight=3;rotatable=0;labelPosition=right;points=[];portConstraint=eastwest;strokeColor=inherit;" vertex="1" parent="dKVqYzNJsK0FXJvsrlv0-1">
          <mxGeometry y="120" width="160" height="8" as="geometry" />
        </mxCell>
        <mxCell id="dKVqYzNJsK0FXJvsrlv0-4" value="&lt;div&gt;def andar():&lt;/div&gt;&lt;div&gt;&amp;nbsp; &amp;nbsp; return 2&lt;/div&gt;&lt;div&gt;def dormir():&lt;/div&gt;&lt;div&gt;&amp;nbsp; &amp;nbsp; return True&lt;/div&gt;&lt;div&gt;def falar():&lt;/div&gt;&lt;div&gt;&amp;nbsp; &amp;nbsp; return 5&lt;/div&gt;&lt;div&gt;def comer():&lt;/div&gt;&lt;div&gt;&amp;nbsp; &amp;nbsp; return 4&lt;/div&gt;&lt;div&gt;def beber():&lt;/div&gt;&lt;div&gt;&amp;nbsp; &amp;nbsp; return 6&lt;/div&gt;" style="text;strokeColor=none;fillColor=none;align=left;verticalAlign=top;spacingLeft=4;spacingRight=4;overflow=hidden;rotatable=0;points=[[0,0.5],[1,0.5]];portConstraint=eastwest;whiteSpace=wrap;html=1;" vertex="1" parent="dKVqYzNJsK0FXJvsrlv0-1">
          <mxGeometry y="128" width="160" height="152" as="geometry" />
        </mxCell>
        <mxCell id="dKVqYzNJsK0FXJvsrlv0-14" style="edgeStyle=orthogonalEdgeStyle;rounded=0;orthogonalLoop=1;jettySize=auto;html=1;exitX=0.5;exitY=0;exitDx=0;exitDy=0;entryX=0;entryY=0.5;entryDx=0;entryDy=0;" edge="1" parent="1" source="dKVqYzNJsK0FXJvsrlv0-5" target="dKVqYzNJsK0FXJvsrlv0-4">
          <mxGeometry relative="1" as="geometry" />
        </mxCell>
        <mxCell id="dKVqYzNJsK0FXJvsrlv0-5" value="Trabalhador" style="swimlane;fontStyle=1;align=center;verticalAlign=top;childLayout=stackLayout;horizontal=1;startSize=26;horizontalStack=0;resizeParent=1;resizeParentMax=0;resizeLast=0;collapsible=1;marginBottom=0;whiteSpace=wrap;html=1;" vertex="1" parent="1">
          <mxGeometry x="120" y="360" width="160" height="160" as="geometry" />
        </mxCell>
        <mxCell id="dKVqYzNJsK0FXJvsrlv0-6" value="&lt;div&gt;profissao = &quot;profissao&quot;&lt;/div&gt;&lt;div&gt;&lt;span style=&quot;background-color: initial;&quot;&gt;salario = &quot;salario&quot;&lt;/span&gt;&lt;/div&gt;" style="text;strokeColor=none;fillColor=none;align=left;verticalAlign=top;spacingLeft=4;spacingRight=4;overflow=hidden;rotatable=0;points=[[0,0.5],[1,0.5]];portConstraint=eastwest;whiteSpace=wrap;html=1;" vertex="1" parent="dKVqYzNJsK0FXJvsrlv0-5">
          <mxGeometry y="26" width="160" height="54" as="geometry" />
        </mxCell>
        <mxCell id="dKVqYzNJsK0FXJvsrlv0-7" value="" style="line;strokeWidth=1;fillColor=none;align=left;verticalAlign=middle;spacingTop=-1;spacingLeft=3;spacingRight=3;rotatable=0;labelPosition=right;points=[];portConstraint=eastwest;strokeColor=inherit;" vertex="1" parent="dKVqYzNJsK0FXJvsrlv0-5">
          <mxGeometry y="80" width="160" height="8" as="geometry" />
        </mxCell>
        <mxCell id="dKVqYzNJsK0FXJvsrlv0-8" value="&lt;div&gt;def bater_ponto():&lt;/div&gt;&lt;div&gt;&amp;nbsp; &amp;nbsp; return 6&lt;/div&gt;&lt;div&gt;def mandar_email():&lt;/div&gt;&lt;div&gt;&amp;nbsp; &amp;nbsp; return True&lt;/div&gt;" style="text;strokeColor=none;fillColor=none;align=left;verticalAlign=top;spacingLeft=4;spacingRight=4;overflow=hidden;rotatable=0;points=[[0,0.5],[1,0.5]];portConstraint=eastwest;whiteSpace=wrap;html=1;" vertex="1" parent="dKVqYzNJsK0FXJvsrlv0-5">
          <mxGeometry y="88" width="160" height="72" as="geometry" />
        </mxCell>
        <mxCell id="dKVqYzNJsK0FXJvsrlv0-15" style="edgeStyle=orthogonalEdgeStyle;rounded=0;orthogonalLoop=1;jettySize=auto;html=1;exitX=0.5;exitY=0;exitDx=0;exitDy=0;entryX=0;entryY=0.5;entryDx=0;entryDy=0;" edge="1" parent="1" source="dKVqYzNJsK0FXJvsrlv0-9" target="dKVqYzNJsK0FXJvsrlv0-4">
          <mxGeometry relative="1" as="geometry" />
        </mxCell>
        <mxCell id="dKVqYzNJsK0FXJvsrlv0-9" value="Estudante" style="swimlane;fontStyle=1;align=center;verticalAlign=top;childLayout=stackLayout;horizontal=1;startSize=26;horizontalStack=0;resizeParent=1;resizeParentMax=0;resizeLast=0;collapsible=1;marginBottom=0;whiteSpace=wrap;html=1;" vertex="1" parent="1">
          <mxGeometry x="520" y="360" width="160" height="160" as="geometry" />
        </mxCell>
        <mxCell id="dKVqYzNJsK0FXJvsrlv0-10" value="&lt;div&gt;curso = &quot;&quot;&lt;/div&gt;&lt;div&gt;semestre = &quot;&quot;&lt;/div&gt;" style="text;strokeColor=none;fillColor=none;align=left;verticalAlign=top;spacingLeft=4;spacingRight=4;overflow=hidden;rotatable=0;points=[[0,0.5],[1,0.5]];portConstraint=eastwest;whiteSpace=wrap;html=1;" vertex="1" parent="dKVqYzNJsK0FXJvsrlv0-9">
          <mxGeometry y="26" width="160" height="54" as="geometry" />
        </mxCell>
        <mxCell id="dKVqYzNJsK0FXJvsrlv0-11" value="" style="line;strokeWidth=1;fillColor=none;align=left;verticalAlign=middle;spacingTop=-1;spacingLeft=3;spacingRight=3;rotatable=0;labelPosition=right;points=[];portConstraint=eastwest;strokeColor=inherit;" vertex="1" parent="dKVqYzNJsK0FXJvsrlv0-9">
          <mxGeometry y="80" width="160" height="8" as="geometry" />
        </mxCell>
        <mxCell id="dKVqYzNJsK0FXJvsrlv0-12" value="&lt;div&gt;def fazer_prova():&lt;/div&gt;&lt;div&gt;&amp;nbsp; &amp;nbsp; return 6&lt;/div&gt;&lt;div&gt;def ir_para_intervalo():&lt;/div&gt;&lt;div&gt;&amp;nbsp; &amp;nbsp; return True&lt;/div&gt;" style="text;strokeColor=none;fillColor=none;align=left;verticalAlign=top;spacingLeft=4;spacingRight=4;overflow=hidden;rotatable=0;points=[[0,0.5],[1,0.5]];portConstraint=eastwest;whiteSpace=wrap;html=1;" vertex="1" parent="dKVqYzNJsK0FXJvsrlv0-9">
          <mxGeometry y="88" width="160" height="72" as="geometry" />
        </mxCell>
        <mxCell id="dKVqYzNJsK0FXJvsrlv0-16" value="Endereço" style="swimlane;fontStyle=0;childLayout=stackLayout;horizontal=1;startSize=26;fillColor=none;horizontalStack=0;resizeParent=1;resizeParentMax=0;resizeLast=0;collapsible=1;marginBottom=0;whiteSpace=wrap;html=1;" vertex="1" parent="1">
          <mxGeometry x="610" y="30" width="140" height="104" as="geometry" />
        </mxCell>
        <mxCell id="dKVqYzNJsK0FXJvsrlv0-17" value="Street" style="text;strokeColor=none;fillColor=none;align=left;verticalAlign=top;spacingLeft=4;spacingRight=4;overflow=hidden;rotatable=0;points=[[0,0.5],[1,0.5]];portConstraint=eastwest;whiteSpace=wrap;html=1;" vertex="1" parent="dKVqYzNJsK0FXJvsrlv0-16">
          <mxGeometry y="26" width="140" height="26" as="geometry" />
        </mxCell>
        <mxCell id="dKVqYzNJsK0FXJvsrlv0-18" value="City" style="text;strokeColor=none;fillColor=none;align=left;verticalAlign=top;spacingLeft=4;spacingRight=4;overflow=hidden;rotatable=0;points=[[0,0.5],[1,0.5]];portConstraint=eastwest;whiteSpace=wrap;html=1;" vertex="1" parent="dKVqYzNJsK0FXJvsrlv0-16">
          <mxGeometry y="52" width="140" height="26" as="geometry" />
        </mxCell>
        <mxCell id="dKVqYzNJsK0FXJvsrlv0-19" value="Country" style="text;strokeColor=none;fillColor=none;align=left;verticalAlign=top;spacingLeft=4;spacingRight=4;overflow=hidden;rotatable=0;points=[[0,0.5],[1,0.5]];portConstraint=eastwest;whiteSpace=wrap;html=1;" vertex="1" parent="dKVqYzNJsK0FXJvsrlv0-16">
          <mxGeometry y="78" width="140" height="26" as="geometry" />
        </mxCell>
        <mxCell id="dKVqYzNJsK0FXJvsrlv0-20" style="edgeStyle=orthogonalEdgeStyle;rounded=0;orthogonalLoop=1;jettySize=auto;html=1;exitX=1;exitY=0.5;exitDx=0;exitDy=0;entryX=0;entryY=0.5;entryDx=0;entryDy=0;" edge="1" parent="1" source="dKVqYzNJsK0FXJvsrlv0-4" target="dKVqYzNJsK0FXJvsrlv0-18">
          <mxGeometry relative="1" as="geometry" />
        </mxCell>
        <mxCell id="dKVqYzNJsK0FXJvsrlv0-23" value="1" style="text;html=1;align=center;verticalAlign=middle;resizable=0;points=[];autosize=1;strokeColor=none;fillColor=none;" vertex="1" parent="1">
          <mxGeometry x="585" y="68" width="30" height="30" as="geometry" />
        </mxCell>
        <mxCell id="dKVqYzNJsK0FXJvsrlv0-24" value="0 1" style="text;html=1;align=center;verticalAlign=middle;resizable=0;points=[];autosize=1;strokeColor=none;fillColor=none;" vertex="1" parent="1">
          <mxGeometry x="470" y="218" width="40" height="30" as="geometry" />
        </mxCell>
      </root>
    </mxGraphModel>
  </diagram>
</mxfile>
